<mxfile host="app.diagrams.net" modified="2024-04-26T17:50:39.730Z" agent="Mozilla/5.0 (Windows NT 10.0; Win64; x64) AppleWebKit/537.36 (KHTML, like Gecko) Chrome/123.0.0.0 Safari/537.36" version="24.3.0" etag="auuYoOCFHDQ6_kRkxPqS" type="github">
  <diagram name="PÃ¡gina-1" id="KogP6age_iNIYKZUtexq">
    <mxGraphModel>
      <root>
        <mxCell id="0" />
        <mxCell id="1" parent="0" />
      </root>
    </mxGraphModel>
  </diagram>
</mxfile>
